<?xml version="1.0" encoding="UTF-8" standalone="no"?>
<!DOCTYPE svg PUBLIC "-//W3C//DTD SVG 1.1//EN"
 "http://www.w3.org/Graphics/SVG/1.1/DTD/svg11.dtd">
<!-- Generated by graphviz version 14.0.4 (20251115.1723)
 -->
<!-- Title: validation_flow Pages: 1 -->
<svg width="1900pt" height="2464pt"
 viewBox="0.00 0.00 1900.00 2464.00" xmlns="http://www.w3.org/2000/svg" xmlns:xlink="http://www.w3.org/1999/xlink">
<g id="graph0" class="graph" transform="scale(2.22222 2.22222) rotate(0) translate(25.2 1083.57)">
<title>validation_flow</title>
<polygon fill="#ffffff" stroke="none" points="-25.2,25.2 -25.2,-1083.57 829.79,-1083.57 829.79,25.2 -25.2,25.2"/>
<text xml:space="preserve" text-anchor="middle" x="402.3" y="-1030.62" font-family="PingFang SC" font-size="25.00">AIP Evolve：基线、候选与验证闭环</text>
<text xml:space="preserve" text-anchor="middle" x="402.3" y="-994.62" font-family="PingFang SC" font-size="25.00">公开资料概念归纳，非官方内部实现</text>
<!-- baseline -->
<g id="node1" class="node">
<title>baseline</title>
<path fill="#e8f3f0" stroke="#529382" stroke-width="1.3" d="M615.56,-978.37C615.56,-978.37 412.88,-978.37 412.88,-978.37 406.88,-978.37 400.88,-972.37 400.88,-966.37 400.88,-966.37 400.88,-916.21 400.88,-916.21 400.88,-910.21 406.88,-904.21 412.88,-904.21 412.88,-904.21 615.56,-904.21 615.56,-904.21 621.56,-904.21 627.56,-910.21 627.56,-916.21 627.56,-916.21 627.56,-966.37 627.56,-966.37 627.56,-972.37 621.56,-978.37 615.56,-978.37"/>
<text xml:space="preserve" text-anchor="middle" x="514.22" y="-950.24" font-family="PingFang SC" font-size="19.00" fill="#183147">检查目标并建立基线</text>
<text xml:space="preserve" text-anchor="middle" x="514.22" y="-923.24" font-family="PingFang SC" font-size="19.00" fill="#183147">保留原行为与基线输出</text>
</g>
<!-- cases -->
<g id="node2" class="node">
<title>cases</title>
<path fill="#edf5fc" stroke="#709abc" stroke-width="1.3" d="M638.06,-865.21C638.06,-865.21 390.38,-865.21 390.38,-865.21 384.38,-865.21 378.38,-859.21 378.38,-853.21 378.38,-853.21 378.38,-803.05 378.38,-803.05 378.38,-797.05 384.38,-791.05 390.38,-791.05 390.38,-791.05 638.06,-791.05 638.06,-791.05 644.06,-791.05 650.06,-797.05 650.06,-803.05 650.06,-803.05 650.06,-853.21 650.06,-853.21 650.06,-859.21 644.06,-865.21 638.06,-865.21"/>
<text xml:space="preserve" text-anchor="middle" x="514.22" y="-837.08" font-family="PingFang SC" font-size="19.00" fill="#183147">构造 / 选择验证用例</text>
<text xml:space="preserve" text-anchor="middle" x="514.22" y="-810.08" font-family="PingFang SC" font-size="19.00" fill="#183147">官方示例：10 个代表性用例</text>
</g>
<!-- baseline&#45;&gt;cases -->
<g id="edge1" class="edge">
<title>baseline&#45;&gt;cases</title>
<path fill="none" stroke="#637e91" stroke-width="1.4" d="M514.22,-903.58C514.22,-894.57 514.22,-884.81 514.22,-875.41"/>
<polygon fill="#637e91" stroke="#637e91" stroke-width="1.4" points="516.84,-875.42 514.22,-867.92 511.59,-875.42 516.84,-875.42"/>
</g>
<!-- candidate -->
<g id="node3" class="node">
<title>candidate</title>
<path fill="#eeeaf7" stroke="#9477bc" stroke-width="1.3" d="M670.68,-741.93C670.68,-741.93 357.75,-741.93 357.75,-741.93 351.75,-741.93 345.75,-735.93 345.75,-729.93 345.75,-729.93 345.75,-679.77 345.75,-679.77 345.75,-673.77 351.75,-667.77 357.75,-667.77 357.75,-667.77 670.68,-667.77 670.68,-667.77 676.68,-667.77 682.68,-673.77 682.68,-679.77 682.68,-679.77 682.68,-729.93 682.68,-729.93 682.68,-735.93 676.68,-741.93 670.68,-741.93"/>
<text xml:space="preserve" text-anchor="middle" x="514.22" y="-713.8" font-family="PingFang SC" font-size="19.00" fill="#183147">形成候选变更</text>
<text xml:space="preserve" text-anchor="middle" x="514.22" y="-686.8" font-family="PingFang SC" font-size="19.00" fill="#183147">官方示例：更换模型、调整 prompt</text>
</g>
<!-- cases&#45;&gt;candidate -->
<g id="edge2" class="edge">
<title>cases&#45;&gt;candidate</title>
<path fill="none" stroke="#637e91" stroke-width="1.4" d="M514.22,-790.41C514.22,-778.3 514.22,-764.67 514.22,-751.95"/>
<polygon fill="#637e91" stroke="#637e91" stroke-width="1.4" points="516.84,-752.06 514.22,-744.56 511.59,-752.06 516.84,-752.06"/>
</g>
<!-- validate -->
<g id="node4" class="node">
<title>validate</title>
<path fill="#edf5fc" stroke="#709abc" stroke-width="1.3" d="M422.06,-618.64C422.06,-618.64 180.38,-618.64 180.38,-618.64 174.37,-618.64 168.38,-612.64 168.38,-606.64 168.38,-606.64 168.38,-556.48 168.38,-556.48 168.38,-550.48 174.38,-544.48 180.38,-544.48 180.38,-544.48 422.06,-544.48 422.06,-544.48 428.06,-544.48 434.06,-550.48 434.06,-556.48 434.06,-556.48 434.06,-606.64 434.06,-606.64 434.06,-612.64 428.06,-618.64 422.06,-618.64"/>
<text xml:space="preserve" text-anchor="middle" x="301.22" y="-590.51" font-family="PingFang SC" font-size="19.00" fill="#183147">对照基线验证</text>
<text xml:space="preserve" text-anchor="middle" x="301.22" y="-563.51" font-family="PingFang SC" font-size="19.00" fill="#183147">检查输出、指标与质量回归</text>
</g>
<!-- candidate&#45;&gt;validate -->
<g id="edge3" class="edge">
<title>candidate&#45;&gt;validate</title>
<path fill="none" stroke="#637e91" stroke-width="1.4" d="M449.73,-667.13C425.75,-653.47 398.38,-637.89 373.73,-623.85"/>
<polygon fill="#637e91" stroke="#637e91" stroke-width="1.4" points="375.14,-621.63 367.32,-620.2 372.54,-626.19 375.14,-621.63"/>
</g>
<!-- decision -->
<g id="node5" class="node">
<title>decision</title>
<polygon fill="#fff4df" stroke="#bd9753" stroke-width="1.3" points="400.22,-505.48 245,-441.4 400.21,-377.32 555.44,-441.4 400.22,-505.48"/>
<text xml:space="preserve" text-anchor="middle" x="400.22" y="-450.35" font-family="PingFang SC" font-size="19.00" fill="#183147">目标与限制检查</text>
<text xml:space="preserve" text-anchor="middle" x="400.22" y="-423.35" font-family="PingFang SC" font-size="19.00" fill="#183147">继续 / 结束？</text>
</g>
<!-- validate&#45;&gt;decision -->
<g id="edge4" class="edge">
<title>validate&#45;&gt;decision</title>
<path fill="none" stroke="#637e91" stroke-width="1.4" d="M327.49,-543.9C337.29,-530.22 348.67,-514.34 359.47,-499.26"/>
<polygon fill="#637e91" stroke="#637e91" stroke-width="1.4" points="361.59,-500.81 363.82,-493.19 357.32,-497.76 361.59,-500.81"/>
</g>
<!-- decision&#45;&gt;candidate -->
<g id="edge6" class="edge">
<title>decision&#45;&gt;candidate</title>
<path fill="none" stroke="#637e91" stroke-width="1.4" stroke-dasharray="5,2" d="M427.85,-494.64C441.13,-519.75 454.22,-544.48 454.22,-544.48 454.22,-544.48 479.39,-611.34 497.12,-658.44"/>
<polygon fill="#637e91" stroke="#637e91" stroke-width="1.4" points="494.6,-659.21 499.7,-665.3 499.52,-657.36 494.6,-659.21"/>
<text xml:space="preserve" text-anchor="middle" x="511.97" y="-578.19" font-family="PingFang SC" font-size="15.00" fill="#456174">仍需探索</text>
</g>
<!-- report -->
<g id="node6" class="node">
<title>report</title>
<path fill="#e8f3f0" stroke="#529382" stroke-width="1.3" d="M549.31,-317.57C549.31,-317.57 327.12,-317.57 327.12,-317.57 321.12,-317.57 315.12,-311.57 315.12,-305.57 315.12,-305.57 315.12,-228.41 315.12,-228.41 315.12,-222.41 321.12,-216.41 327.12,-216.41 327.12,-216.41 549.31,-216.41 549.31,-216.41 555.31,-216.41 561.31,-222.41 561.31,-228.41 561.31,-228.41 561.31,-305.57 561.31,-305.57 561.31,-311.57 555.31,-317.57 549.31,-317.57"/>
<text xml:space="preserve" text-anchor="middle" x="438.22" y="-289.44" font-family="PingFang SC" font-size="19.00" fill="#183147">报告 / Proposal</text>
<text xml:space="preserve" text-anchor="middle" x="438.22" y="-262.44" font-family="PingFang SC" font-size="19.00" fill="#183147">推荐变更与验证证据</text>
<text xml:space="preserve" text-anchor="middle" x="438.22" y="-235.44" font-family="PingFang SC" font-size="19.00" fill="#183147">人工核查置信评估和限制</text>
</g>
<!-- decision&#45;&gt;report -->
<g id="edge7" class="edge">
<title>decision&#45;&gt;report</title>
<path fill="none" stroke="#637e91" stroke-width="1.4" d="M413.08,-382.03C416.99,-364.31 421.28,-344.83 425.19,-327.07"/>
<polygon fill="#637e91" stroke="#637e91" stroke-width="1.4" points="427.7,-327.91 426.75,-320.02 422.57,-326.78 427.7,-327.91"/>
<text xml:space="preserve" text-anchor="middle" x="476.62" y="-344.07" font-family="PingFang SC" font-size="15.00" fill="#456174">完成 / 到达限制</text>
</g>
<!-- resume -->
<g id="node7" class="node">
<title>resume</title>
<path fill="#e8eef9" stroke="#6887bd" stroke-width="1.3" d="M693.31,-156.66C693.31,-156.66 393.12,-156.66 393.12,-156.66 387.12,-156.66 381.12,-150.66 381.12,-144.66 381.12,-144.66 381.12,-94.5 381.12,-94.5 381.12,-88.5 387.12,-82.5 393.12,-82.5 393.12,-82.5 693.31,-82.5 693.31,-82.5 699.31,-82.5 705.31,-88.5 705.31,-94.5 705.31,-94.5 705.31,-144.66 705.31,-144.66 705.31,-150.66 699.31,-156.66 693.31,-156.66"/>
<text xml:space="preserve" text-anchor="middle" x="543.22" y="-128.53" font-family="PingFang SC" font-size="19.00" fill="#183147">Resume（可选）</text>
<text xml:space="preserve" text-anchor="middle" x="543.22" y="-101.53" font-family="PingFang SC" font-size="19.00" fill="#183147">附加指令后继续 AI FDE evolution</text>
</g>
<!-- report&#45;&gt;resume -->
<g id="edge8" class="edge">
<title>report&#45;&gt;resume</title>
<path fill="none" stroke="#637e91" stroke-width="1.4" stroke-dasharray="5,2" d="M474.35,-215.95C486.38,-199.29 499.69,-180.86 511.37,-164.68"/>
<polygon fill="#637e91" stroke="#637e91" stroke-width="1.4" points="513.46,-166.27 515.72,-158.66 509.2,-163.2 513.46,-166.27"/>
<text xml:space="preserve" text-anchor="middle" x="548.21" y="-183.16" font-family="PingFang SC" font-size="15.00" fill="#456174">审阅后可继续</text>
</g>
<!-- resume&#45;&gt;candidate -->
<g id="edge9" class="edge">
<title>resume&#45;&gt;candidate</title>
<path fill="none" stroke="#637e91" stroke-width="1.4" stroke-dasharray="5,2" d="M582.9,-157.01C594.06,-167.26 603.22,-175.66 603.22,-175.66 603.22,-175.66 635.22,-265.99 635.22,-265.99 635.22,-582.56 635.22,-582.56 635.22,-582.56 635.22,-582.56 592.01,-625.87 557.23,-660.73"/>
<polygon fill="#637e91" stroke="#637e91" stroke-width="1.4" points="555.78,-658.46 552.34,-665.63 559.5,-662.17 555.78,-658.46"/>
<text xml:space="preserve" text-anchor="middle" x="665.22" y="-438.02" font-family="PingFang SC" font-size="15.00" fill="#456174">继续探索</text>
</g>
<!-- boundary -->
<g id="node9" class="node">
<title>boundary</title>
<path fill="#f4f7fa" stroke="none" stroke-width="1.3" d="M792.59,-43.5C792.59,-43.5 293.84,-43.5 293.84,-43.5 287.84,-43.5 281.84,-37.5 281.84,-31.5 281.84,-31.5 281.84,-12 281.84,-12 281.84,-6 287.84,0 293.84,0 293.84,0 792.59,0 792.59,0 798.59,0 804.59,-6 804.59,-12 804.59,-12 804.59,-31.5 804.59,-31.5 804.59,-37.5 798.59,-43.5 792.59,-43.5"/>
<text xml:space="preserve" text-anchor="middle" x="543.22" y="-29.25" font-family="PingFang SC" font-size="15.00" fill="#647789">图中顺序是概念归纳；具体调度、候选选择与停止判定未公开。</text>
<text xml:space="preserve" text-anchor="middle" x="543.22" y="-7.5" font-family="PingFang SC" font-size="15.00" fill="#647789">未据此主张 beam / evolution 算法、固定 agent DAG 或严格代码修改预算。</text>
</g>
<!-- resume&#45;&gt;boundary -->
<!-- limits -->
<g id="node8" class="node">
<title>limits</title>
<path fill="#fff8ea" stroke="#b7a070" stroke-width="1.3" d="M254.43,-752.05C254.43,-752.05 12,-752.05 12,-752.05 6,-752.05 0,-746.05 0,-740.05 0,-740.05 0,-669.64 0,-669.64 0,-663.64 6,-657.64 12,-657.64 12,-657.64 254.43,-657.64 254.43,-657.64 260.43,-657.64 266.43,-663.64 266.43,-669.64 266.43,-669.64 266.43,-740.05 266.43,-740.05 266.43,-746.05 260.43,-752.05 254.43,-752.05"/>
<text xml:space="preserve" text-anchor="middle" x="133.22" y="-725.82" font-family="PingFang SC" font-size="17.00" fill="#183147">目标与运行限制</text>
<text xml:space="preserve" text-anchor="middle" x="133.22" y="-701.07" font-family="PingFang SC" font-size="17.00" fill="#183147">示例最多 5 轮，实际完成 3 轮</text>
<text xml:space="preserve" text-anchor="middle" x="133.22" y="-676.32" font-family="PingFang SC" font-size="17.00" fill="#183147">不代表默认值或统一算法</text>
</g>
<!-- limits&#45;&gt;candidate -->
<g id="edge5" class="edge">
<title>limits&#45;&gt;candidate</title>
<path fill="none" stroke="#637e91" stroke-width="1.4" stroke-dasharray="5,2" d="M267.01,-704.85C289.24,-704.85 312.61,-704.85 335.75,-704.85"/>
<polygon fill="#637e91" stroke="#637e91" stroke-width="1.4" points="335.67,-707.47 343.17,-704.85 335.67,-702.22 335.67,-707.47"/>
<text xml:space="preserve" text-anchor="middle" x="306.09" y="-715.35" font-family="PingFang SC" font-size="15.00" fill="#456174">约束</text>
</g>
</g>
</svg>
