<?xml version="1.0" encoding="UTF-8"?>
<svg aria-roledescription="flowchart-v2" role="img" viewBox="-28 -28 994 655" height="655" xmlns="http://www.w3.org/2000/svg" width="994" id="diagram-07-aip-tools" aria-label="AIP 工具和 Ontology 写入" style="max-width: none; background-color: rgb(255, 255, 255);"><title>AIP 工具和 Ontology 写入</title><style>#diagram-07-aip-tools{font-family:"PingFang SC","Microsoft YaHei",Arial,sans-serif;font-size:17px;fill:var(--text-color);}#diagram-07-aip-tools .error-icon{fill:hsl(42.8571428571, 100%, 100%);}#diagram-07-aip-tools .error-text{fill:#000000;stroke:#000000;}#diagram-07-aip-tools .edge-thickness-normal{stroke-width:2px;}#diagram-07-aip-tools .edge-thickness-thick{stroke-width:3.5px;}#diagram-07-aip-tools .edge-pattern-solid{stroke-dasharray:0;}#diagram-07-aip-tools .edge-pattern-dashed{stroke-dasharray:3;}#diagram-07-aip-tools .edge-pattern-dotted{stroke-dasharray:2;}#diagram-07-aip-tools .marker{fill:#45576f;stroke:#45576f;}#diagram-07-aip-tools .marker.cross{stroke:#45576f;}#diagram-07-aip-tools svg{font-family:"PingFang SC","Microsoft YaHei",Arial,sans-serif;font-size:17px;}#diagram-07-aip-tools .label{font-family:"PingFang SC","Microsoft YaHei",Arial,sans-serif;color:#14243b;}#diagram-07-aip-tools .cluster-label text{fill:#000000;}#diagram-07-aip-tools .cluster-label span,#diagram-07-aip-tools p{color:#000000;}#diagram-07-aip-tools .label text,#diagram-07-aip-tools span,#diagram-07-aip-tools p{fill:#14243b;color:#14243b;}#diagram-07-aip-tools .node rect,#diagram-07-aip-tools .node circle,#diagram-07-aip-tools .node ellipse,#diagram-07-aip-tools .node polygon,#diagram-07-aip-tools .node path{fill:#f1f5ff;stroke:#506a91;stroke-width:1px;}#diagram-07-aip-tools .flowchart-label text{text-anchor:middle;}#diagram-07-aip-tools .node .katex path{fill:#000;stroke:#000;stroke-width:1px;}#diagram-07-aip-tools .node .label{text-align:center;}#diagram-07-aip-tools .node.clickable{cursor:pointer;}#diagram-07-aip-tools .arrowheadPath{fill:#0b0b0b;}#diagram-07-aip-tools .edgePath .path{stroke:#45576f;stroke-width:2.0px;}#diagram-07-aip-tools .flowchart-link{stroke:#45576f;fill:none;}#diagram-07-aip-tools .edgeLabel{background-color:hsl(102.8571428571, 100%, 97.2549019608%);text-align:center;}#diagram-07-aip-tools .edgeLabel rect{opacity:0.5;background-color:hsl(102.8571428571, 100%, 97.2549019608%);fill:hsl(102.8571428571, 100%, 97.2549019608%);}#diagram-07-aip-tools .labelBkg{background-color:rgba(245.0000000001, 255, 241.0000000001, 0.5);}#diagram-07-aip-tools .cluster rect{fill:#f8fafc;stroke:#cbd5e1;stroke-width:1px;}#diagram-07-aip-tools .cluster text{fill:#000000;}#diagram-07-aip-tools .cluster span,#diagram-07-aip-tools p{color:#000000;}#diagram-07-aip-tools div.mermaidTooltip{position:absolute;text-align:center;max-width:200px;padding:2px;font-family:"PingFang SC","Microsoft YaHei",Arial,sans-serif;font-size:12px;background:hsl(42.8571428571, 100%, 100%);border:1px solid hsl(42.8571428571, 60%, 90%);border-radius:2px;pointer-events:none;z-index:100;}#diagram-07-aip-tools .flowchartTitleText{text-anchor:middle;font-size:18px;fill:#14243b;}#diagram-07-aip-tools .input rect{fill:#d3f9d8!important;stroke:#2f9e44!important;color:#111!important;}#diagram-07-aip-tools .input polygon{fill:#d3f9d8!important;stroke:#2f9e44!important;color:#111!important;}#diagram-07-aip-tools .input ellipse{fill:#d3f9d8!important;stroke:#2f9e44!important;color:#111!important;}#diagram-07-aip-tools .input circle{fill:#d3f9d8!important;stroke:#2f9e44!important;color:#111!important;}#diagram-07-aip-tools .input path{fill:#d3f9d8!important;stroke:#2f9e44!important;color:#111!important;}#diagram-07-aip-tools .input tspan{fill:#111!important;}#diagram-07-aip-tools .process rect{fill:#e5dbff!important;stroke:#5f3dc4!important;color:#111!important;}#diagram-07-aip-tools .process polygon{fill:#e5dbff!important;stroke:#5f3dc4!important;color:#111!important;}#diagram-07-aip-tools .process ellipse{fill:#e5dbff!important;stroke:#5f3dc4!important;color:#111!important;}#diagram-07-aip-tools .process circle{fill:#e5dbff!important;stroke:#5f3dc4!important;color:#111!important;}#diagram-07-aip-tools .process path{fill:#e5dbff!important;stroke:#5f3dc4!important;color:#111!important;}#diagram-07-aip-tools .process tspan{fill:#111!important;}#diagram-07-aip-tools .decision rect{fill:#ffe3e3!important;stroke:#c92a2a!important;color:#111!important;}#diagram-07-aip-tools .decision polygon{fill:#ffe3e3!important;stroke:#c92a2a!important;color:#111!important;}#diagram-07-aip-tools .decision ellipse{fill:#ffe3e3!important;stroke:#c92a2a!important;color:#111!important;}#diagram-07-aip-tools .decision circle{fill:#ffe3e3!important;stroke:#c92a2a!important;color:#111!important;}#diagram-07-aip-tools .decision path{fill:#ffe3e3!important;stroke:#c92a2a!important;color:#111!important;}#diagram-07-aip-tools .decision tspan{fill:#111!important;}#diagram-07-aip-tools .output rect{fill:#c5f6fa!important;stroke:#0c8599!important;color:#111!important;}#diagram-07-aip-tools .output polygon{fill:#c5f6fa!important;stroke:#0c8599!important;color:#111!important;}#diagram-07-aip-tools .output ellipse{fill:#c5f6fa!important;stroke:#0c8599!important;color:#111!important;}#diagram-07-aip-tools .output circle{fill:#c5f6fa!important;stroke:#0c8599!important;color:#111!important;}#diagram-07-aip-tools .output path{fill:#c5f6fa!important;stroke:#0c8599!important;color:#111!important;}#diagram-07-aip-tools .output tspan{fill:#111!important;}#diagram-07-aip-tools .meta rect{fill:#e7f5ff!important;stroke:#1971c2!important;color:#111!important;}#diagram-07-aip-tools .meta polygon{fill:#e7f5ff!important;stroke:#1971c2!important;color:#111!important;}#diagram-07-aip-tools .meta ellipse{fill:#e7f5ff!important;stroke:#1971c2!important;color:#111!important;}#diagram-07-aip-tools .meta circle{fill:#e7f5ff!important;stroke:#1971c2!important;color:#111!important;}#diagram-07-aip-tools .meta path{fill:#e7f5ff!important;stroke:#1971c2!important;color:#111!important;}#diagram-07-aip-tools .meta tspan{fill:#111!important;}</style><g><marker orient="auto" markerHeight="12" markerWidth="12" markerUnits="userSpaceOnUse" refY="5" refX="6" viewBox="0 0 10 10" class="marker flowchart" id="diagram-07-aip-tools_flowchart-pointEnd"><path style="stroke-width: 1; stroke-dasharray: 1, 0;" class="arrowMarkerPath" d="M 0 0 L 10 5 L 0 10 z"></path></marker><marker orient="auto" markerHeight="12" markerWidth="12" markerUnits="userSpaceOnUse" refY="5" refX="4.5" viewBox="0 0 10 10" class="marker flowchart" id="diagram-07-aip-tools_flowchart-pointStart"><path style="stroke-width: 1; stroke-dasharray: 1, 0;" class="arrowMarkerPath" d="M 0 5 L 10 10 L 10 0 z"></path></marker><marker orient="auto" markerHeight="11" markerWidth="11" markerUnits="userSpaceOnUse" refY="5" refX="11" viewBox="0 0 10 10" class="marker flowchart" id="diagram-07-aip-tools_flowchart-circleEnd"><circle style="stroke-width: 1; stroke-dasharray: 1, 0;" class="arrowMarkerPath" r="5" cy="5" cx="5"></circle></marker><marker orient="auto" markerHeight="11" markerWidth="11" markerUnits="userSpaceOnUse" refY="5" refX="-1" viewBox="0 0 10 10" class="marker flowchart" id="diagram-07-aip-tools_flowchart-circleStart"><circle style="stroke-width: 1; stroke-dasharray: 1, 0;" class="arrowMarkerPath" r="5" cy="5" cx="5"></circle></marker><marker orient="auto" markerHeight="11" markerWidth="11" markerUnits="userSpaceOnUse" refY="5.2" refX="12" viewBox="0 0 11 11" class="marker cross flowchart" id="diagram-07-aip-tools_flowchart-crossEnd"><path style="stroke-width: 2; stroke-dasharray: 1, 0;" class="arrowMarkerPath" d="M 1,1 l 9,9 M 10,1 l -9,9"></path></marker><marker orient="auto" markerHeight="11" markerWidth="11" markerUnits="userSpaceOnUse" refY="5.2" refX="-1" viewBox="0 0 11 11" class="marker cross flowchart" id="diagram-07-aip-tools_flowchart-crossStart"><path style="stroke-width: 2; stroke-dasharray: 1, 0;" class="arrowMarkerPath" d="M 1,1 l 9,9 M 10,1 l -9,9"></path></marker><g class="root"><g class="clusters"></g><g class="edgePaths"><path marker-end="url(#diagram-07-aip-tools_flowchart-pointEnd)" style="fill:none;" class="edge-thickness-normal edge-pattern-solid flowchart-link LS-variables LE-loop" id="L-variables-loop-0" d="M281.692,42L289.868,46C298.044,50,314.397,58,322.574,65.117C330.75,72.233,330.75,78.467,330.75,81.583L330.75,84.7"></path><path marker-end="url(#diagram-07-aip-tools_flowchart-pointEnd)" style="fill:none;" class="edge-thickness-normal edge-pattern-solid flowchart-link LS-loop LE-pinned" id="L-loop-pinned-0" d="M330.75,132L330.75,136C330.75,140,330.75,148,330.75,155.117C330.75,162.233,330.75,168.467,330.75,171.583L330.75,174.7"></path><path marker-end="url(#diagram-07-aip-tools_flowchart-pointEnd)" style="fill:none;" class="edge-thickness-normal edge-pattern-solid flowchart-link LS-pinned LE-tool" id="L-pinned-tool-0" d="M330.75,222L330.75,226C330.75,230,330.75,238,335.695,245.491C340.64,252.981,350.53,259.962,355.475,263.453L360.42,266.944"></path><path marker-end="url(#diagram-07-aip-tools_flowchart-pointEnd)" style="fill:none;" class="edge-thickness-normal edge-pattern-solid flowchart-link LS-tool LE-stream" id="L-tool-stream-0" d="M249.852,311.852L221.932,315.876C194.013,319.901,138.174,327.951,110.255,335.092C82.336,342.233,82.336,348.467,82.336,351.583L82.336,354.7"></path><path marker-end="url(#diagram-07-aip-tools_flowchart-pointEnd)" style="fill:none;" class="edge-thickness-normal edge-pattern-solid flowchart-link LS-stream LE-output" id="L-stream-output-0" d="M82.336,402L82.336,406C82.336,410,82.336,418,86.386,426.745C90.436,435.49,98.535,444.979,102.585,449.724L106.635,454.469"></path><path marker-end="url(#diagram-07-aip-tools_flowchart-pointEnd)" style="fill:none;" class="edge-thickness-normal edge-pattern-solid flowchart-link LS-output LE-variables" id="L-output-variables-0" d="M146.419,458.5L151.171,453.083C155.922,447.667,165.424,436.833,170.175,423.917C174.926,411,174.926,396,174.926,381C174.926,366,174.926,351,174.926,336C174.926,321,174.926,306,174.926,291C174.926,276,174.926,261,174.926,246C174.926,231,174.926,216,174.926,201C174.926,186,174.926,171,174.926,156C174.926,141,174.926,126,174.926,111C174.926,96,174.926,81,179.878,70.009C184.831,59.018,194.736,52.036,199.689,48.545L204.642,45.054"></path><path marker-end="url(#diagram-07-aip-tools_flowchart-pointEnd)" style="fill:none;" class="edge-thickness-normal edge-pattern-solid flowchart-link LS-tool LE-readonly" id="L-tool-readonly-0" d="M394.5,312L394.5,316C394.5,320,394.5,328,394.5,335.117C394.5,342.233,394.5,348.467,394.5,351.583L394.5,354.7"></path><path marker-end="url(#diagram-07-aip-tools_flowchart-pointEnd)" style="fill:none;" class="edge-thickness-normal edge-pattern-solid flowchart-link LS-readonly LE-value" id="L-readonly-value-0" d="M394.5,402L394.5,406C394.5,410,394.5,418,394.5,426.533C394.5,435.067,394.5,444.133,394.5,448.667L394.5,453.2"></path><path marker-end="url(#diagram-07-aip-tools_flowchart-pointEnd)" style="fill:none;" class="edge-thickness-normal edge-pattern-solid flowchart-link LS-tool LE-action" id="L-tool-action-0" d="M521.353,312L545.516,316C569.678,320,618.003,328,642.166,335.117C666.328,342.233,666.328,348.467,666.328,351.583L666.328,354.7"></path><path marker-end="url(#diagram-07-aip-tools_flowchart-pointEnd)" style="fill:none;" class="edge-thickness-normal edge-pattern-solid flowchart-link LS-action LE-published" id="L-action-published-0" d="M666.328,402L666.328,406C666.328,410,666.328,418,666.328,425.117C666.328,432.233,666.328,438.467,666.328,441.583L666.328,444.7"></path><path marker-end="url(#diagram-07-aip-tools_flowchart-pointEnd)" style="fill:none;" class="edge-thickness-normal edge-pattern-solid flowchart-link LS-published LE-transaction" id="L-published-transaction-0" d="M666.328,509L666.328,513C666.328,517,666.328,525,672.727,532.57C679.126,540.139,691.923,547.279,698.322,550.848L704.72,554.418"></path><path marker-end="url(#diagram-07-aip-tools_flowchart-pointEnd)" style="fill:none;stroke-width:2px;stroke-dasharray:3;" class="edge-thickness-normal edge-pattern-dotted flowchart-link LS-access LE-tool" id="L-access-tool-0" d="M777.372,222L769.698,226C762.025,230,746.679,238,707.85,246.162C669.022,254.324,606.712,262.649,575.557,266.811L544.402,270.973"></path><path marker-end="url(#diagram-07-aip-tools_flowchart-pointEnd)" style="fill:none;stroke-width:2px;stroke-dasharray:3;" class="edge-thickness-normal edge-pattern-dotted flowchart-link LS-access LE-transaction" id="L-access-transaction-0" d="M822.323,222L823.212,226C824.101,230,825.878,238,826.767,249.5C827.656,261,827.656,276,827.656,291C827.656,306,827.656,321,827.656,336C827.656,351,827.656,366,827.656,381C827.656,396,827.656,411,827.656,427.417C827.656,443.833,827.656,461.667,827.656,479.5C827.656,497.333,827.656,515.167,821.258,527.653C814.859,540.139,802.061,547.279,795.663,550.848L789.264,554.418"></path></g><g class="edgeLabels"><g class="edgeLabel"><g transform="translate(0, 0)" class="label"><rect height="0" width="0" ry="0" rx="0"></rect><text style=""><tspan class="row" x="0" dy="1em" xml:space="preserve"></tspan></text></g></g><g class="edgeLabel"><g transform="translate(0, 0)" class="label"><rect height="0" width="0" ry="0" rx="0"></rect><text style=""><tspan class="row" x="0" dy="1em" xml:space="preserve"></tspan></text></g></g><g class="edgeLabel"><g transform="translate(0, 0)" class="label"><rect height="0" width="0" ry="0" rx="0"></rect><text style=""><tspan class="row" x="0" dy="1em" xml:space="preserve"></tspan></text></g></g><g class="edgeLabel"><g transform="translate(0, 0)" class="label"><rect height="0" width="0" ry="0" rx="0"></rect><text style=""><tspan class="row" x="0" dy="1em" xml:space="preserve"></tspan></text></g></g><g class="edgeLabel"><g transform="translate(0, 0)" class="label"><rect height="0" width="0" ry="0" rx="0"></rect><text style=""><tspan class="row" x="0" dy="1em" xml:space="preserve"></tspan></text></g></g><g class="edgeLabel"><g transform="translate(0, 0)" class="label"><rect height="0" width="0" ry="0" rx="0"></rect><text style=""><tspan class="row" x="0" dy="1em" xml:space="preserve"></tspan></text></g></g><g class="edgeLabel"><g transform="translate(0, 0)" class="label"><rect height="0" width="0" ry="0" rx="0"></rect><text style=""><tspan class="row" x="0" dy="1em" xml:space="preserve"></tspan></text></g></g><g class="edgeLabel"><g transform="translate(0, 0)" class="label"><rect height="0" width="0" ry="0" rx="0"></rect><text style=""><tspan class="row" x="0" dy="1em" xml:space="preserve"></tspan></text></g></g><g class="edgeLabel"><g transform="translate(0, 0)" class="label"><rect height="0" width="0" ry="0" rx="0"></rect><text style=""><tspan class="row" x="0" dy="1em" xml:space="preserve"></tspan></text></g></g><g class="edgeLabel"><g transform="translate(0, 0)" class="label"><rect height="0" width="0" ry="0" rx="0"></rect><text style=""><tspan class="row" x="0" dy="1em" xml:space="preserve"></tspan></text></g></g><g class="edgeLabel"><g transform="translate(0, 0)" class="label"><rect height="0" width="0" ry="0" rx="0"></rect><text style=""><tspan class="row" x="0" dy="1em" xml:space="preserve"></tspan></text></g></g><g class="edgeLabel"><g transform="translate(0, 0)" class="label"><rect height="0" width="0" ry="0" rx="0"></rect><text style=""><tspan class="row" x="0" dy="1em" xml:space="preserve"></tspan></text></g></g><g class="edgeLabel"><g transform="translate(0, 0)" class="label"><rect height="0" width="0" ry="0" rx="0"></rect><text style=""><tspan class="row" x="0" dy="1em" xml:space="preserve"></tspan></text></g></g></g><g class="nodes"><g transform="translate(238.765625, 21)" data-id="variables" data-node="true" id="flowchart-variables-178" class="node default input flowchart-label"><rect height="42" width="187.59375" y="-21" x="-93.796875" ry="0" rx="0" style="" class="basic label-container"></rect><g transform="translate(0, -12)" style="" class="label"><rect></rect><text style=""><tspan class="row" x="0" dy="1em" xml:space="preserve">Workshop 的映射变量</tspan></text></g></g><g transform="translate(330.75, 111)" data-id="loop" data-node="true" id="flowchart-loop-179" class="node default process flowchart-label"><rect height="42" width="189" y="-21" x="-94.5" ry="0" rx="0" style="" class="basic label-container"></rect><g transform="translate(0, -12)" style="" class="label"><rect></rect><text style=""><tspan class="row" x="0" dy="1em" xml:space="preserve">Chatbot 推理循环开始</tspan></text></g></g><g transform="translate(330.75, 201)" data-id="pinned" data-node="true" id="flowchart-pinned-181" class="node default process flowchart-label"><rect height="42" width="222" y="-21" x="-111" ry="0" rx="0" style="" class="basic label-container"></rect><g transform="translate(0, -12)" style="" class="label"><rect></rect><text style=""><tspan class="row" x="0" dy="1em" xml:space="preserve">固定工具输入取循环初始值</tspan></text></g></g><g transform="translate(394.5, 291)" data-id="tool" data-node="true" id="flowchart-tool-183" class="node default process flowchart-label"><rect height="42" width="289.296875" y="-21" x="-144.6484375" ry="0" rx="0" style="" class="basic label-container"></rect><g transform="translate(0, -12)" style="" class="label"><rect></rect><text style=""><tspan class="row" x="0" dy="1em" xml:space="preserve">调用检索、Function 或 Action 工具</tspan></text></g></g><g transform="translate(82.3359375, 381)" data-id="stream" data-node="true" id="flowchart-stream-185" class="node default process flowchart-label"><rect height="42" width="126.65625" y="-21" x="-63.328125" ry="0" rx="0" style="" class="basic label-container"></rect><g transform="translate(0, -12)" style="" class="label"><rect></rect><text style=""><tspan class="row" x="0" dy="1em" xml:space="preserve">LLM 流式响应</tspan></text></g></g><g transform="translate(128, 479.5)" data-id="output" data-node="true" id="flowchart-output-187" class="node default output flowchart-label"><rect height="42" width="256" y="-21" x="-128" ry="0" rx="0" style="" class="basic label-container"></rect><g transform="translate(0, -12)" style="" class="label"><rect></rect><text style=""><tspan class="row" x="0" dy="1em" xml:space="preserve">流式完成后写入确定性映射输出</tspan></text></g></g><g transform="translate(394.5, 381)" data-id="readonly" data-node="true" id="flowchart-readonly-191" class="node default process flowchart-label"><rect height="42" width="179.46875" y="-21" x="-89.734375" ry="0" rx="0" style="" class="basic label-container"></rect><g transform="translate(0, -12)" style="" class="label"><rect></rect><text style=""><tspan class="row" x="0" dy="1em" xml:space="preserve">只读 Function / 检索</tspan></text></g></g><g transform="translate(394.5, 479.5)" data-id="value" data-node="true" id="flowchart-value-193" class="node default output flowchart-label"><rect height="42" width="205" y="-21" x="-102.5" ry="0" rx="0" style="" class="basic label-container"></rect><g transform="translate(0, -12)" style="" class="label"><rect></rect><text style=""><tspan class="row" x="0" dy="1em" xml:space="preserve">返回值供显示或后续推理</tspan></text></g></g><g transform="translate(666.328125, 381)" data-id="action" data-node="true" id="flowchart-action-195" class="node default process flowchart-label"><rect height="42" width="232.65625" y="-21" x="-116.328125" ry="0" rx="0" style="" class="basic label-container"></rect><g transform="translate(0, -12)" style="" class="label"><rect></rect><text style=""><tspan class="row" x="0" dy="1em" xml:space="preserve">需要写入：选择 Action 工具</tspan></text></g></g><g transform="translate(666.328125, 479.5)" data-id="published" data-node="true" id="flowchart-published-197" class="node default process flowchart-label"><rect height="59" width="266.65625" y="-29.5" x="-133.328125" ry="0" rx="0" style="" class="basic label-container"></rect><g transform="translate(0, -20.5)" style="" class="label"><rect></rect><text style=""><tspan class="row" x="0" dy="1em" xml:space="preserve">执行 Action 规则或函数；若使用</tspan><tspan class="row" x="0" dy="1em" xml:space="preserve">Logic，须已发布</tspan></text></g></g><g transform="translate(746.9921875, 578)" data-id="transaction" data-node="true" id="flowchart-transaction-199" class="node default process flowchart-label"><rect height="42" width="256" y="-21" x="-128" ry="0" rx="0" style="" class="basic label-container"></rect><g transform="translate(0, -12)" style="" class="label"><rect></rect><text style=""><tspan class="row" x="0" dy="1em" xml:space="preserve">按写模式和隔离配置执行并提交</tspan></text></g></g><g transform="translate(817.65625, 201)" data-id="access" data-node="true" id="flowchart-access-200" class="node default meta flowchart-label"><rect height="42" width="239" y="-21" x="-119.5" ry="0" rx="0" style="" class="basic label-container"></rect><g transform="translate(0, -12)" style="" class="label"><rect></rect><text style=""><tspan class="row" x="0" dy="1em" xml:space="preserve">变量读写配置和平台执行权限</tspan></text></g></g></g></g></g></svg>
